<svg width="394" height="100" viewBox="0 0 394 100" fill="none" xmlns="http://www.w3.org/2000/svg">
<path d="M104.507 62C104.029 62 103.657 61.8702 103.394 61.6106C103.131 61.351 103 60.9853 103 60.5133V39.4873C103 39.0154 103.131 38.6496 103.394 38.39C103.657 38.1304 104.027 38.0006 104.505 38.0006H117.695C118.172 38.0006 118.543 38.1304 118.806 38.39C119.068 38.6496 119.2 39.0154 119.2 39.4873C119.2 39.9593 119.068 40.3251 118.806 40.5846C118.543 40.8442 118.172 40.974 117.695 40.974H106.011V48.4074H113.215C113.692 48.4074 114.063 48.5372 114.326 48.7968C114.588 49.0564 114.72 49.4222 114.72 49.8941C114.72 50.3661 114.588 50.7319 114.326 50.9914C114.063 51.251 113.692 51.3808 113.215 51.3808H106.011V60.5133C106.011 60.9853 105.879 61.351 105.616 61.6106C105.354 61.8702 104.983 62 104.505 62H104.507ZM124.421 62C123.895 62 123.513 61.882 123.274 61.646C123.035 61.41 122.915 61.0325 122.915 60.5133V39.5227C122.915 39.0036 123.035 38.626 123.274 38.39C123.513 38.154 123.895 38.036 124.421 38.036C124.946 38.036 125.329 38.154 125.567 38.39C125.806 38.626 125.926 39.0036 125.926 39.5227V60.5133C125.926 61.0325 125.806 61.41 125.567 61.646C125.329 61.882 124.946 62 124.421 62ZM151.552 38.0006C152.03 38.0006 152.4 38.1304 152.663 38.39C152.926 38.6496 153.057 39.0154 153.057 39.4873V60.5133C153.057 60.9853 152.926 61.351 152.663 61.6106C152.4 61.8702 152.03 62 151.552 62C151.265 62 151.002 61.9292 150.763 61.7876C150.484 61.6091 150.241 61.3811 150.046 61.1151L136.391 43.735V60.5133C136.391 60.9853 136.26 61.351 135.997 61.6106C135.734 61.8702 135.364 62 134.886 62C134.408 62 134.038 61.8702 133.775 61.6106C133.512 61.351 133.381 60.9853 133.381 60.5133V39.4873C133.381 39.0154 133.512 38.6496 133.775 38.39C134.038 38.1304 134.408 38.0006 134.886 38.0006C135.173 38.0006 135.424 38.0714 135.639 38.213C135.878 38.3546 136.128 38.5788 136.391 38.8856L150.046 56.2656V39.4873C150.046 39.0154 150.178 38.6496 150.441 38.39C150.704 38.1304 151.074 38.0006 151.552 38.0006ZM162.011 62C161.533 62 161.163 61.8702 160.9 61.6106C160.637 61.351 160.506 60.9853 160.506 60.5133V39.4873C160.506 39.0154 160.637 38.6496 160.9 38.39C161.163 38.1304 161.533 38.0006 162.011 38.0006H170.649C173.779 38.0006 176.073 38.7322 177.53 40.1953C179.011 41.6348 179.752 43.9002 179.752 46.9915V53.0091C179.752 56.1004 179.011 58.3777 177.53 59.8408C176.073 61.2802 173.779 62 170.649 62H162.011ZM170.649 59.0266C172.202 59.0266 173.408 58.8378 174.269 58.4603C175.12 58.1141 175.802 57.4539 176.168 56.6196C176.55 55.7465 176.742 54.543 176.742 53.0091V46.9915C176.742 45.4577 176.55 44.266 176.168 43.4164C175.811 42.5679 175.128 41.8935 174.269 41.5404C173.408 41.1628 172.202 40.974 170.649 40.974H163.516V59.0266H170.649ZM218.932 38.0006C219.744 38.0006 220.15 38.4962 220.15 39.4873V60.5133C220.15 60.9853 220.019 61.351 219.756 61.6106C219.493 61.8702 219.123 62 218.645 62C218.167 62 217.797 61.8702 217.534 61.6106C217.271 61.351 217.14 60.9853 217.14 60.5133V44.1244L210.545 53.717C210.306 54.0474 210.043 54.2952 209.757 54.4604C209.432 54.6101 209.076 54.6828 208.717 54.6728C208.43 54.6728 208.168 54.602 207.929 54.4604C207.667 54.2455 207.438 53.9952 207.248 53.717L200.617 44.089V60.5133C200.617 60.9853 200.486 61.351 200.223 61.6106C199.96 61.8702 199.59 62 199.112 62C198.634 62 198.264 61.8702 198.001 61.6106C197.738 61.351 197.607 60.9853 197.607 60.5133V39.4873C197.607 39.0154 197.738 38.6496 198.001 38.39C198.264 38.1304 198.634 38.0006 199.112 38.0006C199.781 38.0006 200.331 38.3192 200.761 38.9564L208.932 51.0976L217.104 38.9564C217.51 38.3192 218.119 38.0006 218.932 38.0006ZM244.304 38.3546C244.829 38.685 245.092 39.0744 245.092 39.5227C245.092 39.8059 244.985 40.0891 244.77 40.3723L236.24 53.2923V60.5133C236.24 60.9853 236.108 61.351 235.845 61.6106C235.583 61.8702 235.212 62 234.734 62C234.256 62 233.886 61.8702 233.623 61.6106C233.36 61.351 233.229 60.9853 233.229 60.5133V53.2923L225.022 40.3723C224.83 40.0419 224.735 39.7469 224.735 39.4873C224.735 38.9918 224.986 38.5906 225.488 38.2838C225.822 38.095 226.121 38.0006 226.384 38.0006C226.837 38.0006 227.232 38.2484 227.566 38.744L234.734 50.1065L242.261 38.744C242.548 38.272 242.93 38.036 243.408 38.036C243.694 38.036 243.993 38.1422 244.304 38.3546ZM276.19 48.372C278.077 49.4576 279.021 51.3808 279.021 54.1418V55.3453C279.021 57.5164 278.436 59.1682 277.265 60.3009C276.118 61.4337 274.445 62 272.247 62H262.427C261.949 62 261.579 61.8702 261.316 61.6106C261.053 61.351 260.922 60.9853 260.922 60.5133V39.4873C260.922 39.0154 261.053 38.6496 261.316 38.39C261.579 38.1304 261.949 38.0006 262.427 38.0006H271.781C273.669 38.0006 275.126 38.4962 276.154 39.4873C277.181 40.4784 277.695 41.8943 277.695 43.735V44.6907C277.695 45.4459 277.564 46.142 277.301 46.7792C277.058 47.387 276.678 47.9319 276.19 48.372ZM263.932 47.5225H272.892C273.514 47.4517 273.968 47.1685 274.254 46.673C274.541 46.1538 274.684 45.4931 274.684 44.6907V43.735C274.684 42.7203 274.469 42.0123 274.039 41.6112C273.609 41.1864 272.857 40.974 271.781 40.974H263.932V47.5225ZM276.01 54.1418C276.01 52.8203 275.724 51.8882 275.15 51.3454C274.577 50.7791 273.609 50.4959 272.247 50.4959H263.932V59.0266H272.247C273.585 59.0266 274.541 58.7435 275.114 58.1771C275.712 57.6107 276.01 56.6668 276.01 55.3453V54.1418ZM286.543 62C285.54 62 285.038 61.5044 285.038 60.5133V39.4873C285.038 38.4962 285.54 38.0006 286.543 38.0006C287.547 38.0006 288.048 38.4962 288.048 39.4873V59.0266H297.976C298.98 59.0266 299.481 59.5222 299.481 60.5133C299.481 61.5044 298.98 62 297.976 62H286.543ZM310.897 62C308.149 62 306.118 61.3628 304.804 60.0885C303.513 58.7906 302.867 56.7848 302.867 54.071V45.8942C302.867 43.1804 303.525 41.1864 304.84 39.9121C306.154 38.6142 308.173 37.977 310.897 38.0006H315.196C317.944 38.0006 319.963 38.6496 321.253 39.9475C322.569 41.2218 323.226 43.2158 323.226 45.9296V54.071C323.226 56.7848 322.569 58.7906 321.253 60.0885C319.963 61.3628 317.944 62 315.196 62H310.897ZM315.196 59.0266C316.512 59.0266 317.514 58.8732 318.208 58.5665C318.897 58.2863 319.449 57.7534 319.748 57.0798C320.06 56.3718 320.214 55.3689 320.214 54.071V45.9296C320.214 44.6553 320.06 43.6642 319.748 42.9563C319.458 42.2682 318.904 41.7212 318.208 41.4342C317.491 41.1274 316.486 40.974 315.196 40.974H310.897C309.606 40.9504 308.601 41.092 307.885 41.3988C307.188 41.6858 306.635 42.2328 306.345 42.9209C306.034 43.6288 305.879 44.6199 305.879 45.8942V54.071C305.879 55.3689 306.034 56.3718 306.345 57.0798C306.654 57.7641 307.156 58.2597 307.849 58.5665C308.565 58.8732 309.582 59.0266 310.897 59.0266H315.196ZM336.97 62C334.223 62 332.192 61.3628 330.878 60.0885C329.587 58.7906 328.942 56.7848 328.942 54.071V45.9296C328.942 43.2158 329.587 41.21 330.878 39.9121C332.192 38.6142 334.211 37.977 336.935 38.0006H341.271C343.517 38.0006 345.226 38.4608 346.397 39.3811C347.591 40.3015 348.284 41.741 348.475 43.6996C348.547 44.1952 348.451 44.5727 348.189 44.8323C347.926 45.0919 347.543 45.2217 347.042 45.2217C346.564 45.2217 346.193 45.1037 345.931 44.8677C345.692 44.6081 345.536 44.2306 345.465 43.735C345.345 42.6731 344.975 41.9533 344.354 41.5758C343.732 41.1746 342.705 40.974 341.271 40.974H336.935C335.644 40.9504 334.641 41.092 333.924 41.3988C333.207 41.7055 332.694 42.2129 332.383 42.9209C332.096 43.6288 331.953 44.6317 331.953 45.9296V54.071C331.953 55.3689 332.108 56.3718 332.419 57.0798C332.729 57.7641 333.231 58.2597 333.924 58.5665C334.641 58.8732 335.656 59.0266 336.97 59.0266H341.271C342.705 59.0266 343.732 58.8378 344.354 58.4603C344.975 58.0591 345.345 57.3276 345.465 56.2656C345.536 55.7701 345.692 55.4043 345.931 55.1683C346.193 54.9087 346.564 54.779 347.042 54.779C347.543 54.779 347.926 54.9087 348.189 55.1683C348.451 55.4279 348.547 55.8055 348.475 56.301C348.284 58.2597 347.591 59.6992 346.397 60.6195C345.226 61.5398 343.517 62 341.271 62H336.97ZM370.42 59.416C370.683 59.7464 370.814 60.0767 370.814 60.4071C370.814 60.8319 370.611 61.1977 370.205 61.5044C369.934 61.7579 369.574 61.8975 369.201 61.8938C368.771 61.8938 368.401 61.6932 368.09 61.2921L359.31 50.5667L357.768 52.1596V60.5133C357.768 60.9853 357.637 61.351 357.374 61.6106C357.111 61.8702 356.741 62 356.263 62C355.785 62 355.415 61.8702 355.152 61.6106C354.889 61.351 354.758 60.9853 354.758 60.5133V39.4873C354.758 39.0154 354.889 38.6496 355.152 38.39C355.415 38.1304 355.785 38.0006 356.263 38.0006C356.741 38.0006 357.111 38.1304 357.374 38.39C357.637 38.6496 357.768 39.0154 357.768 39.4873V47.9119L366.908 38.567C367.266 38.213 367.624 38.036 367.983 38.036C368.341 38.036 368.688 38.2012 369.022 38.5316C369.381 38.8856 369.56 39.2395 369.56 39.5935C369.56 39.9475 369.393 40.2897 369.058 40.62L361.46 48.4074L370.42 59.416ZM381.85 62C379.795 62 378.194 61.5988 377.048 60.7965C375.925 59.9706 375.22 58.708 374.933 57.009C374.885 56.5134 374.993 56.1359 375.255 55.8763C375.518 55.5931 375.901 55.4515 376.402 55.4515C376.88 55.4515 377.239 55.5695 377.478 55.8055C377.717 56.0179 377.884 56.3836 377.979 56.9028C378.147 57.7051 378.517 58.2597 379.09 58.5665C379.688 58.8732 380.608 59.0266 381.85 59.0266H387.011C388.062 59.0266 388.863 58.9086 389.412 58.6727C389.684 58.5676 389.932 58.4102 390.141 58.2097C390.35 58.0091 390.517 57.7694 390.631 57.5045C390.87 56.9382 390.989 56.1476 390.989 55.1329C390.989 53.6226 390.703 52.5843 390.129 52.018C389.556 51.4516 388.516 51.1684 387.011 51.1684H382.567C380.321 51.1684 378.648 50.6257 377.549 49.5402C376.45 48.4546 375.901 46.791 375.901 44.5491C375.901 42.3309 376.438 40.6908 377.513 39.6289C378.613 38.5434 380.285 38.0006 382.531 38.0006H386.796C390.571 38.0006 392.746 39.5581 393.319 42.6731C393.391 43.1686 393.295 43.558 393.032 43.8412C392.77 44.1008 392.375 44.2306 391.85 44.2306C391.372 44.2306 391.013 44.1126 390.774 43.8766C390.535 43.6406 390.38 43.2748 390.308 42.7793C390.117 42.0949 389.759 41.623 389.233 41.3634C388.708 41.1038 387.895 40.974 386.796 40.974H382.531C381.551 40.974 380.799 41.0802 380.273 41.2926C380.028 41.3943 379.807 41.5439 379.622 41.7325C379.437 41.9211 379.293 42.1447 379.198 42.3899C379.007 42.8855 378.911 43.6052 378.911 44.5491C378.911 45.5167 379.019 46.26 379.234 46.7792C379.449 47.2747 379.807 47.6405 380.309 47.8765C380.835 48.0889 381.587 48.1951 382.567 48.1951H387.011C389.377 48.1951 391.133 48.7614 392.28 49.8941C393.427 51.0268 394 52.7731 394 55.1329C394 57.4691 393.427 59.2036 392.28 60.3363C391.133 61.4454 389.377 62 387.011 62H381.85Z" fill="#E22F22"/>
<path d="M36.736 0L0 19.258L0.470993 63.573L22.841 76.334L36.972 100L50.63 76.334L73 63.69V19.49L36.736 0ZM29.67 64.27L14.364 55.685V35.498L29.67 44.547V64.268V64.27ZM21.9 23.433L36.735 15.776L51.335 23.433L36.735 32.018L21.9 23.433ZM58.871 55.683L43.8 64.27V44.548L58.871 35.731V55.683Z" fill="#E22F22"/>
</svg>
