<svg viewBox="0 0 196 133" fill="none" xmlns="http://www.w3.org/2000/svg">
<path d="M98.2323 0L62 19.2575L62.4645 63.5731L84.529 76.3341L98.4645 100L111.935 76.3341L134 63.6891V19.4896L98.2323 0ZM91.2645 64.2691L76.1677 55.6845V35.4988L91.2645 44.5476V64.2691ZM83.6 23.4339L98.2323 15.7773L112.632 23.4339L98.2323 32.0186L83.6 23.4339ZM120.065 55.6845L105.2 64.2691V44.5476L120.065 35.7309V55.6845Z" fill="#FF4B3E"/>
<path d="M1.85944 133C1.53944 133 1.29144 132.912 1.11544 132.736C0.93944 132.56 0.85144 132.312 0.85144 131.992V117.736C0.85144 117.416 0.93944 117.168 1.11544 116.992C1.29144 116.816 1.53944 116.728 1.85944 116.728H10.6914C11.0114 116.728 11.2594 116.816 11.4354 116.992C11.6114 117.168 11.6994 117.416 11.6994 117.736C11.6994 118.056 11.6114 118.304 11.4354 118.48C11.2594 118.656 11.0114 118.744 10.6914 118.744H2.86744V123.784H7.69144C8.01144 123.784 8.25944 123.872 8.43544 124.048C8.61144 124.224 8.69944 124.472 8.69944 124.792C8.69944 125.112 8.61144 125.36 8.43544 125.536C8.25944 125.712 8.01144 125.8 7.69144 125.8H2.86744V131.992C2.86744 132.312 2.77944 132.56 2.60344 132.736C2.42744 132.912 2.17944 133 1.85944 133Z" fill="#FF4B3E"/>
<path d="M15.1954 133C14.8434 133 14.5874 132.92 14.4274 132.76C14.2674 132.6 14.1874 132.344 14.1874 131.992V117.76C14.1874 117.408 14.2674 117.152 14.4274 116.992C14.5874 116.832 14.8434 116.752 15.1954 116.752C15.5474 116.752 15.8034 116.832 15.9634 116.992C16.1234 117.152 16.2034 117.408 16.2034 117.76V131.992C16.2034 132.344 16.1234 132.6 15.9634 132.76C15.8034 132.92 15.5474 133 15.1954 133Z" fill="#FF4B3E"/>
<path d="M33.3632 116.728C33.6832 116.728 33.9312 116.816 34.1072 116.992C34.2832 117.168 34.3712 117.416 34.3712 117.736V131.992C34.3712 132.312 34.2832 132.56 34.1072 132.736C33.9312 132.912 33.6832 133 33.3632 133C33.1712 133 32.9952 132.952 32.8352 132.856C32.6752 132.76 32.5152 132.608 32.3552 132.4L23.2112 120.616V131.992C23.2112 132.312 23.1232 132.56 22.9472 132.736C22.7712 132.912 22.5232 133 22.2032 133C21.8832 133 21.6352 132.912 21.4592 132.736C21.2832 132.56 21.1952 132.312 21.1952 131.992V117.736C21.1952 117.416 21.2832 117.168 21.4592 116.992C21.6352 116.816 21.8832 116.728 22.2032 116.728C22.3952 116.728 22.5632 116.776 22.7072 116.872C22.8672 116.968 23.0352 117.12 23.2112 117.328L32.3552 129.112V117.736C32.3552 117.416 32.4432 117.168 32.6192 116.992C32.7952 116.816 33.0432 116.728 33.3632 116.728Z" fill="#FF4B3E"/>
<path d="M40.3673 133C40.0473 133 39.7993 132.912 39.6233 132.736C39.4473 132.56 39.3593 132.312 39.3593 131.992V117.736C39.3593 117.416 39.4473 117.168 39.6233 116.992C39.7993 116.816 40.0473 116.728 40.3673 116.728H46.1513C48.2473 116.728 49.7833 117.224 50.7593 118.216C51.7513 119.192 52.2473 120.728 52.2473 122.824V126.904C52.2473 129 51.7513 130.544 50.7593 131.536C49.7833 132.512 48.2473 133 46.1513 133H40.3673ZM46.1513 130.984C47.1913 130.984 47.9993 130.856 48.5753 130.6C49.1673 130.344 49.5913 129.928 49.8473 129.352C50.1033 128.76 50.2313 127.944 50.2313 126.904V122.824C50.2313 121.784 50.1033 120.976 49.8473 120.4C49.5913 119.808 49.1673 119.384 48.5753 119.128C47.9993 118.872 47.1913 118.744 46.1513 118.744H41.3753V130.984H46.1513Z" fill="#FF4B3E"/>
<path d="M78.483 116.728C79.027 116.728 79.299 117.064 79.299 117.736V131.992C79.299 132.312 79.211 132.56 79.035 132.736C78.859 132.912 78.611 133 78.291 133C77.971 133 77.723 132.912 77.547 132.736C77.371 132.56 77.283 132.312 77.283 131.992V120.88L72.867 127.384C72.707 127.608 72.531 127.776 72.339 127.888C72.147 127.984 71.915 128.032 71.643 128.032C71.451 128.032 71.275 127.984 71.115 127.888C70.971 127.776 70.819 127.608 70.659 127.384L66.219 120.856V131.992C66.219 132.312 66.131 132.56 65.955 132.736C65.779 132.912 65.531 133 65.211 133C64.891 133 64.643 132.912 64.467 132.736C64.291 132.56 64.203 132.312 64.203 131.992V117.736C64.203 117.416 64.291 117.168 64.467 116.992C64.643 116.816 64.891 116.728 65.211 116.728C65.659 116.728 66.027 116.944 66.315 117.376L71.787 125.608L77.259 117.376C77.531 116.944 77.939 116.728 78.483 116.728Z" fill="#FF4B3E"/>
<path d="M95.4729 116.968C95.8249 117.192 96.0009 117.456 96.0009 117.76C96.0009 117.952 95.9289 118.144 95.7849 118.336L90.0729 127.096V131.992C90.0729 132.312 89.9849 132.56 89.8089 132.736C89.6329 132.912 89.3849 133 89.0649 133C88.7449 133 88.4969 132.912 88.3209 132.736C88.1449 132.56 88.0569 132.312 88.0569 131.992V127.096L82.5609 118.336C82.4329 118.112 82.3689 117.912 82.3689 117.736C82.3689 117.4 82.5369 117.128 82.8729 116.92C83.0969 116.792 83.2969 116.728 83.4729 116.728C83.7769 116.728 84.0409 116.896 84.2649 117.232L89.0649 124.936L94.1049 117.232C94.2969 116.912 94.5529 116.752 94.8729 116.752C95.0649 116.752 95.2649 116.824 95.4729 116.968Z" fill="#FF4B3E"/>
<path d="M116.825 123.76C118.089 124.496 118.721 125.8 118.721 127.672V128.488C118.721 129.96 118.329 131.08 117.545 131.848C116.777 132.616 115.657 133 114.185 133H107.609C107.289 133 107.041 132.912 106.865 132.736C106.689 132.56 106.601 132.312 106.601 131.992V117.736C106.601 117.416 106.689 117.168 106.865 116.992C107.041 116.816 107.289 116.728 107.609 116.728H113.873C115.137 116.728 116.113 117.064 116.801 117.736C117.489 118.408 117.833 119.368 117.833 120.616V121.264C117.833 121.776 117.745 122.248 117.569 122.68C117.393 123.112 117.145 123.472 116.825 123.76ZM108.617 123.184H114.185H114.617C115.033 123.136 115.337 122.944 115.529 122.608C115.721 122.256 115.817 121.808 115.817 121.264V120.616C115.817 119.928 115.673 119.448 115.385 119.176C115.097 118.888 114.593 118.744 113.873 118.744H108.617V123.184ZM116.705 127.672C116.705 126.776 116.513 126.144 116.129 125.776C115.745 125.392 115.097 125.2 114.185 125.2H108.617V130.984H114.185C115.081 130.984 115.721 130.792 116.105 130.408C116.505 130.024 116.705 129.384 116.705 128.488V127.672Z" fill="#FF4B3E"/>
<path d="M123.758 133C123.086 133 122.75 132.664 122.75 131.992V117.736C122.75 117.064 123.086 116.728 123.758 116.728C124.43 116.728 124.766 117.064 124.766 117.736V130.984H131.414C132.086 130.984 132.422 131.32 132.422 131.992C132.422 132.664 132.086 133 131.414 133H123.758Z" fill="#FF4B3E"/>
<path d="M140.066 133C138.226 133 136.866 132.568 135.986 131.704C135.122 130.824 134.689 129.464 134.689 127.624V122.08C134.689 120.24 135.13 118.888 136.01 118.024C136.89 117.144 138.242 116.712 140.066 116.728H142.945C144.785 116.728 146.137 117.168 147.001 118.048C147.881 118.912 148.322 120.264 148.322 122.104V127.624C148.322 129.464 147.881 130.824 147.001 131.704C146.137 132.568 144.785 133 142.945 133H140.066ZM142.945 130.984C143.825 130.984 144.498 130.88 144.962 130.672C145.442 130.464 145.786 130.128 145.993 129.664C146.201 129.184 146.305 128.504 146.305 127.624V122.104C146.305 121.24 146.201 120.568 145.993 120.088C145.786 119.608 145.442 119.264 144.962 119.056C144.482 118.848 143.809 118.744 142.945 118.744H140.066C139.202 118.728 138.529 118.824 138.049 119.032C137.569 119.24 137.226 119.584 137.018 120.064C136.81 120.544 136.706 121.216 136.706 122.08V127.624C136.706 128.504 136.81 129.184 137.018 129.664C137.226 130.128 137.561 130.464 138.025 130.672C138.505 130.88 139.186 130.984 140.066 130.984H142.945Z" fill="#FF4B3E"/>
<path d="M157.526 133C155.686 133 154.326 132.568 153.446 131.704C152.582 130.824 152.15 129.464 152.15 127.624V122.104C152.15 120.264 152.582 118.904 153.446 118.024C154.326 117.144 155.678 116.712 157.502 116.728H160.406C161.91 116.728 163.054 117.04 163.838 117.664C164.638 118.288 165.102 119.264 165.23 120.592C165.278 120.928 165.214 121.184 165.038 121.36C164.862 121.536 164.606 121.624 164.27 121.624C163.95 121.624 163.702 121.544 163.526 121.384C163.366 121.208 163.262 120.952 163.214 120.616C163.134 119.896 162.886 119.408 162.47 119.152C162.054 118.88 161.366 118.744 160.406 118.744H157.502C156.638 118.728 155.966 118.824 155.486 119.032C155.006 119.24 154.662 119.584 154.454 120.064C154.262 120.544 154.166 121.224 154.166 122.104V127.624C154.166 128.504 154.27 129.184 154.478 129.664C154.686 130.128 155.022 130.464 155.486 130.672C155.966 130.88 156.646 130.984 157.526 130.984H160.406C161.366 130.984 162.054 130.856 162.47 130.6C162.886 130.328 163.134 129.832 163.214 129.112C163.262 128.776 163.366 128.528 163.526 128.368C163.702 128.192 163.95 128.104 164.27 128.104C164.606 128.104 164.862 128.192 165.038 128.368C165.214 128.544 165.278 128.8 165.23 129.136C165.102 130.464 164.638 131.44 163.838 132.064C163.054 132.688 161.91 133 160.406 133H157.526Z" fill="#FF4B3E"/>
<path d="M179.925 131.248C180.101 131.472 180.189 131.696 180.189 131.92C180.189 132.208 180.053 132.456 179.781 132.664C179.589 132.84 179.365 132.928 179.109 132.928C178.821 132.928 178.573 132.792 178.365 132.52L172.485 125.248L171.453 126.328V131.992C171.453 132.312 171.365 132.56 171.189 132.736C171.013 132.912 170.765 133 170.445 133C170.125 133 169.877 132.912 169.701 132.736C169.525 132.56 169.437 132.312 169.437 131.992V117.736C169.437 117.416 169.525 117.168 169.701 116.992C169.877 116.816 170.125 116.728 170.445 116.728C170.765 116.728 171.013 116.816 171.189 116.992C171.365 117.168 171.453 117.416 171.453 117.736V123.448L177.573 117.112C177.813 116.872 178.053 116.752 178.293 116.752C178.533 116.752 178.765 116.864 178.989 117.088C179.229 117.328 179.349 117.568 179.349 117.808C179.349 118.048 179.237 118.28 179.013 118.504L173.925 123.784L179.925 131.248Z" fill="#FF4B3E"/>
<path d="M187.579 133C186.203 133 185.131 132.728 184.363 132.184C183.611 131.624 183.139 130.768 182.947 129.616C182.915 129.28 182.987 129.024 183.163 128.848C183.339 128.656 183.595 128.56 183.931 128.56C184.251 128.56 184.491 128.64 184.651 128.8C184.811 128.944 184.923 129.192 184.987 129.544C185.099 130.088 185.347 130.464 185.731 130.672C186.131 130.88 186.747 130.984 187.579 130.984H191.035C191.739 130.984 192.275 130.904 192.643 130.744C193.027 130.584 193.299 130.32 193.459 129.952C193.619 129.568 193.699 129.032 193.699 128.344C193.699 127.32 193.507 126.616 193.123 126.232C192.739 125.848 192.043 125.656 191.035 125.656H188.059C186.555 125.656 185.435 125.288 184.699 124.552C183.963 123.816 183.595 122.688 183.595 121.168C183.595 119.664 183.955 118.552 184.675 117.832C185.411 117.096 186.531 116.728 188.035 116.728H190.891C193.419 116.728 194.875 117.784 195.259 119.896C195.307 120.232 195.243 120.496 195.067 120.688C194.891 120.864 194.627 120.952 194.275 120.952C193.955 120.952 193.715 120.872 193.555 120.712C193.395 120.552 193.291 120.304 193.243 119.968C193.115 119.504 192.875 119.184 192.523 119.008C192.171 118.832 191.627 118.744 190.891 118.744H188.035C187.379 118.744 186.875 118.816 186.523 118.96C186.187 119.104 185.947 119.352 185.803 119.704C185.675 120.04 185.611 120.528 185.611 121.168C185.611 121.824 185.683 122.328 185.827 122.68C185.971 123.016 186.211 123.264 186.547 123.424C186.899 123.568 187.403 123.64 188.059 123.64H191.035C192.619 123.64 193.795 124.024 194.563 124.792C195.331 125.56 195.715 126.744 195.715 128.344C195.715 129.928 195.331 131.104 194.563 131.872C193.795 132.624 192.619 133 191.035 133H187.579Z" fill="#FF4B3E"/>
</svg>
